<?xml version="1.0" encoding="UTF-8" ?>
<!DOCTYPE svg PUBLIC "-//W3C//DTD SVG 1.1//EN" "http://www.w3.org/Graphics/SVG/1.1/DTD/svg11.dtd">
<svg width="512pt" height="512pt" viewBox="0 0 512 512" version="1.1" xmlns="http://www.w3.org/2000/svg">
<path fill="#000000" opacity="1.00" d=" M 255.15 0.00 L 256.81 0.00 C 262.61 0.16 267.15 4.24 269.79 9.11 C 319.61 85.28 367.56 163.23 404.43 246.63 C 415.20 273.02 426.01 299.95 429.33 328.47 C 432.93 380.47 410.66 433.31 371.56 467.64 C 340.74 495.69 299.41 511.37 257.82 512.00 L 254.20 512.00 C 212.63 511.38 171.32 495.72 140.50 467.70 C 101.45 433.49 79.22 380.81 82.63 328.94 C 85.77 300.47 96.64 273.64 107.26 247.28 C 144.15 163.62 192.30 85.50 242.20 9.09 C 244.83 4.22 249.37 0.18 255.15 0.00 M 255.49 39.38 C 219.03 95.65 184.60 153.31 154.03 213.01 C 138.52 244.34 123.51 276.20 114.25 310.02 C 98.72 368.39 129.70 433.15 180.95 463.21 C 229.82 493.54 296.77 490.40 342.52 455.52 C 382.65 426.44 406.47 375.55 401.10 326.08 C 392.23 279.33 369.79 236.67 348.49 194.58 C 319.71 141.78 289.52 88.05 255.49 39.38 Z" />
<path fill="#000000" opacity="1.00" d=" M 148.56 324.57 C 158.24 321.98 167.06 331.51 165.71 340.96 C 166.00 387.48 207.53 428.56 254.04 428.42 C 264.24 427.12 273.33 438.32 268.78 447.90 C 265.69 455.77 256.42 457.29 249.00 456.01 C 190.64 453.92 139.59 402.42 138.04 344.02 C 136.31 336.06 139.83 326.32 148.56 324.57 Z" />
</svg>
