<?xml version="1.0" encoding="UTF-8" ?>
<!DOCTYPE svg PUBLIC "-//W3C//DTD SVG 1.1//EN" "http://www.w3.org/Graphics/SVG/1.1/DTD/svg11.dtd">
<svg width="735pt" height="764pt" viewBox="0 0 735 764" version="1.1" xmlns="http://www.w3.org/2000/svg">
<g id="#fdfdfdff">
<path fill="#fdfdfd" opacity="1.00" d=" M 327.65 405.83 C 327.85 403.53 325.61 400.37 327.85 398.79 C 332.82 398.51 337.81 398.76 342.80 398.60 C 340.43 400.49 338.60 402.93 337.50 405.75 C 334.21 405.81 330.93 405.81 327.65 405.83 Z" />
</g>
<g id="#000000ff">
<path fill="#000000" opacity="1.00" d=" M 526.71 74.04 C 528.12 61.28 525.92 46.75 534.05 35.80 C 544.55 68.78 559.29 100.73 563.94 135.37 C 571.97 117.08 582.07 99.06 585.15 79.04 C 585.94 76.20 584.94 73.57 583.14 71.39 C 588.99 72.01 592.05 77.56 595.13 81.86 C 600.03 88.78 600.06 97.73 599.47 105.84 C 597.06 124.90 590.79 143.49 580.63 159.83 C 575.64 169.98 570.84 180.92 570.29 192.31 C 577.41 192.42 584.51 193.22 591.47 194.74 C 592.83 230.34 596.23 265.85 597.43 301.46 C 604.93 301.29 612.45 301.42 619.96 301.31 C 636.93 336.23 652.46 371.86 668.82 407.08 C 669.56 408.67 670.24 410.64 669.17 412.26 C 649.10 444.96 627.48 476.75 607.66 509.58 C 570.08 509.74 532.54 508.07 494.95 508.26 C 490.47 508.93 488.65 504.41 486.81 501.28 C 478.40 486.09 469.97 470.90 461.91 455.53 C 452.39 459.35 441.71 456.29 432.70 452.45 C 442.88 455.17 445.37 442.74 451.99 437.96 C 447.31 427.92 441.74 418.28 436.42 408.57 C 429.61 408.41 422.46 407.98 417.60 413.65 C 416.43 431.17 419.39 448.60 418.37 466.12 C 422.17 465.63 426.17 466.95 427.25 470.98 C 427.68 476.02 422.96 479.57 418.64 481.02 C 420.17 493.14 422.20 505.22 421.47 517.50 C 422.68 517.57 423.90 517.65 425.12 517.74 C 424.25 512.17 432.42 508.36 435.38 513.52 C 439.58 521.91 431.95 536.25 421.41 531.62 C 422.38 546.70 423.52 561.78 424.88 576.84 C 429.15 575.54 434.75 578.09 434.57 583.05 C 435.21 588.43 430.16 591.73 426.04 593.91 C 428.82 603.08 426.82 612.69 428.50 621.99 C 428.64 628.45 429.48 634.85 429.78 641.30 C 433.79 641.13 439.11 641.94 440.42 646.41 C 441.06 652.12 434.70 654.98 430.31 656.78 C 433.36 667.47 433.09 678.68 434.47 689.65 C 435.23 689.50 436.76 689.20 437.52 689.05 C 438.05 686.13 438.33 682.80 440.78 680.77 C 445.58 678.67 451.82 682.18 452.41 687.41 C 453.17 693.18 449.91 698.36 447.25 703.20 C 443.07 704.24 438.78 704.70 434.49 704.17 C 435.20 714.00 437.00 723.77 436.58 733.66 C 440.05 733.96 446.59 735.37 445.14 740.19 C 442.27 745.90 434.32 752.63 428.05 747.89 C 424.58 746.03 419.58 743.85 420.25 739.05 C 420.09 732.49 430.61 729.45 433.41 735.78 C 433.90 735.61 434.87 735.28 435.36 735.11 C 436.00 724.64 434.44 714.26 433.32 703.88 C 426.52 702.21 426.55 692.55 432.58 689.87 C 431.85 679.10 431.97 668.12 429.11 657.63 C 423.57 657.03 418.90 652.61 415.77 648.29 C 413.40 640.96 423.29 636.69 428.66 640.84 C 427.12 625.46 427.22 609.93 425.07 594.65 C 418.94 595.07 413.39 590.83 409.43 586.55 C 405.64 578.95 419.30 570.34 423.79 578.71 C 422.94 563.06 421.04 547.48 420.28 531.82 C 414.00 529.24 413.97 520.26 420.48 517.95 C 421.29 505.68 419.59 493.53 417.65 481.45 C 409.61 484.25 403.46 476.60 401.26 469.83 C 400.59 461.32 413.21 457.54 417.08 465.52 C 417.95 448.00 414.43 430.57 416.24 413.06 C 408.32 407.54 398.80 408.69 389.67 408.74 C 389.73 412.53 389.16 416.51 390.84 420.06 C 392.20 418.57 393.52 417.03 394.79 415.45 C 402.96 413.40 405.05 424.99 400.79 429.91 C 398.66 433.78 393.82 433.39 390.04 433.46 C 391.91 449.28 387.29 464.74 388.30 480.54 C 391.96 481.12 396.88 482.19 397.35 486.68 C 398.09 492.23 392.80 495.52 388.52 497.64 C 389.00 511.35 387.70 525.06 388.64 538.76 C 390.87 536.34 393.81 534.80 397.18 535.14 C 399.04 530.87 405.34 527.96 408.53 532.45 C 411.91 538.01 408.46 544.57 405.03 549.25 C 399.90 549.71 394.46 550.50 389.62 548.24 C 388.36 567.47 395.90 586.60 391.42 605.65 C 395.01 602.86 400.83 600.48 404.40 604.64 C 407.01 612.26 399.22 619.52 392.02 619.78 C 386.84 617.79 381.23 614.20 379.20 608.85 C 378.17 601.91 387.31 600.73 391.58 604.26 C 390.58 594.52 392.84 584.61 390.07 575.01 C 387.19 549.46 387.24 523.71 387.54 498.01 C 385.63 498.47 383.74 498.95 381.85 499.44 C 376.96 497.05 369.41 494.24 370.53 487.44 C 370.91 480.82 379.98 476.10 384.35 482.22 C 386.35 481.64 388.02 480.40 387.38 478.04 C 386.26 463.10 390.68 448.41 388.59 433.48 C 385.57 432.20 381.15 430.99 381.14 426.97 C 380.62 422.48 385.00 419.75 388.58 418.26 C 388.46 415.08 388.41 411.90 388.33 408.72 C 379.89 408.76 371.45 408.71 363.02 408.72 C 360.00 413.05 356.12 416.74 351.23 418.87 C 352.64 428.37 353.98 437.87 355.52 447.35 C 357.66 447.41 359.81 447.53 361.95 447.70 C 362.26 446.74 362.57 445.77 362.88 444.82 C 366.47 442.10 370.86 445.43 371.96 449.11 C 373.51 453.45 371.50 458.28 368.32 461.33 C 364.90 463.09 360.97 462.00 357.40 461.49 C 357.23 475.83 358.51 490.16 359.34 504.47 C 363.53 503.58 368.74 504.30 370.25 508.96 C 371.36 515.22 364.73 519.13 359.41 519.98 C 358.30 532.12 361.11 543.92 362.93 555.82 C 366.41 554.75 371.78 555.33 371.74 560.02 C 372.29 569.54 359.36 574.95 352.77 568.20 C 350.11 562.94 356.21 557.58 361.42 559.24 C 361.29 546.69 356.18 534.50 358.23 521.85 C 352.72 519.08 347.13 514.90 344.83 509.01 C 343.54 501.94 352.34 497.88 357.70 501.95 C 356.75 488.54 356.55 475.10 355.62 461.68 C 348.86 460.35 348.26 451.01 353.96 447.90 C 352.58 438.05 351.41 428.14 349.52 418.39 C 344.59 416.38 339.25 413.87 337.08 408.62 C 334.13 408.60 331.18 408.60 328.24 408.64 C 328.37 411.15 328.49 413.66 328.57 416.18 C 331.94 413.87 337.03 413.76 339.37 417.58 C 340.93 423.12 339.22 429.15 335.49 433.44 C 333.81 433.45 332.13 433.46 330.47 433.49 C 331.13 448.82 329.57 464.22 331.40 479.50 C 335.21 480.26 339.75 482.09 340.49 486.42 C 341.35 491.52 336.43 494.89 332.35 496.64 C 332.63 510.53 329.94 524.45 332.23 538.28 C 333.86 538.37 335.50 538.48 337.14 538.61 C 338.76 534.44 344.55 528.51 348.63 533.40 C 354.84 540.23 348.44 549.37 344.30 555.53 C 340.61 555.74 336.91 555.79 333.22 555.60 C 335.38 569.82 335.39 584.23 336.36 598.56 C 341.77 601.86 340.78 608.11 336.98 612.22 C 335.86 624.01 336.30 636.15 336.56 648.08 C 340.51 647.09 346.07 646.19 348.28 650.62 C 351.49 655.66 346.86 660.96 343.03 664.00 C 335.79 671.15 319.94 663.22 323.96 652.78 C 325.73 647.75 331.60 647.55 335.66 649.85 C 335.46 637.32 335.17 624.76 336.14 612.26 C 332.09 614.60 327.25 616.98 322.53 615.36 C 318.08 612.84 312.12 609.19 313.42 603.16 C 314.00 596.30 323.67 592.60 327.97 598.54 C 330.40 597.86 332.91 597.53 335.44 597.54 C 334.53 583.61 334.67 569.60 332.42 555.80 C 329.78 554.24 326.63 552.69 325.79 549.46 C 324.78 544.86 327.92 540.63 331.53 538.16 C 329.06 524.59 331.86 510.91 331.48 497.29 C 328.01 497.21 324.36 498.06 321.02 496.99 C 316.89 492.72 311.31 485.55 315.76 479.76 C 319.80 474.93 326.44 477.65 330.40 481.07 C 329.01 465.25 329.85 449.39 329.47 433.55 C 325.99 432.11 320.93 431.81 319.62 427.60 C 318.00 422.69 322.38 417.12 327.61 418.16 C 327.50 414.99 327.38 411.82 327.27 408.65 C 323.19 408.54 319.10 408.53 315.01 408.64 C 300.65 444.59 284.68 479.88 269.77 515.60 C 261.56 516.63 253.26 516.33 245.00 516.52 C 207.47 516.69 169.93 516.55 132.40 516.54 C 114.11 481.62 95.70 446.74 77.32 411.86 C 95.37 372.78 116.55 335.23 135.22 296.45 C 176.80 296.14 218.38 296.76 259.94 297.55 C 279.51 263.93 299.99 230.68 320.45 197.68 C 349.93 196.81 379.49 196.31 408.99 197.22 C 418.42 196.92 427.92 197.88 437.30 196.62 C 457.26 231.23 474.67 267.29 493.78 302.39 C 500.37 302.45 506.93 301.90 513.52 301.77 C 511.68 267.83 509.66 233.93 508.14 199.96 C 514.58 197.82 521.24 196.42 527.91 195.20 C 527.79 189.82 524.73 185.25 522.57 180.52 C 518.36 171.57 512.26 163.29 503.31 158.63 C 487.60 149.87 475.87 135.74 466.16 120.88 C 461.28 111.79 457.55 102.00 451.38 93.64 C 446.64 85.90 438.97 79.07 429.58 78.28 C 428.17 78.45 427.48 77.35 426.84 76.31 C 448.28 78.81 469.53 86.95 486.35 100.71 C 503.24 113.20 514.80 131.26 525.56 148.94 C 525.00 123.96 526.45 99.02 526.71 74.04 M 528.68 55.93 C 528.42 68.30 527.48 80.61 527.53 92.99 C 527.52 113.61 525.15 134.37 527.95 154.89 C 530.08 160.12 531.90 165.51 534.37 170.60 C 530.65 135.34 528.86 99.60 531.65 64.19 C 532.91 55.63 534.23 47.01 533.27 38.33 C 529.90 43.54 529.69 49.98 528.68 55.93 M 534.39 43.13 C 539.82 77.58 553.93 110.07 559.92 144.39 C 563.28 143.43 562.72 139.30 562.71 136.57 C 559.46 107.67 548.73 80.40 538.86 53.27 C 537.46 49.85 537.00 45.92 534.39 43.13 M 532.33 70.42 C 533.34 70.41 535.35 70.38 536.35 70.37 C 535.09 70.54 533.83 70.70 532.58 70.84 C 531.21 76.09 531.32 81.54 531.37 86.93 C 535.15 85.69 539.00 84.67 542.93 84.03 C 540.74 73.04 537.09 62.38 534.88 51.37 C 532.58 57.32 532.73 64.07 532.33 70.42 M 586.78 74.05 C 586.00 97.44 572.04 117.26 564.73 138.82 C 557.78 155.61 555.12 174.15 556.63 192.24 C 557.59 192.28 559.50 192.34 560.46 192.37 C 558.11 164.54 568.43 137.86 578.54 112.45 C 582.00 103.26 586.86 94.38 587.67 84.43 C 587.86 81.00 589.69 76.82 586.78 74.05 M 589.75 77.41 C 589.60 85.35 588.15 93.22 584.96 100.52 C 589.48 100.96 593.75 102.72 598.31 102.92 C 598.77 93.71 596.36 84.13 589.75 77.41 M 446.91 84.15 C 455.41 91.05 461.70 100.09 466.37 109.92 C 468.88 106.32 472.54 103.16 473.86 98.95 C 465.77 92.63 456.70 87.32 446.91 84.15 M 531.23 90.95 C 535.37 89.33 544.02 90.24 543.84 84.62 C 539.39 85.34 530.38 84.66 531.23 90.95 M 458.04 86.41 C 474.41 97.47 491.42 108.45 503.61 124.41 C 518.53 141.00 529.18 161.50 532.98 183.53 C 532.27 181.73 531.77 179.84 531.36 177.95 C 530.32 177.67 528.23 177.10 527.19 176.81 C 527.34 179.08 527.48 181.35 527.62 183.62 C 526.45 178.72 523.57 174.52 522.02 169.77 C 524.03 171.56 524.48 174.41 525.80 176.66 C 526.77 176.67 528.70 176.68 529.67 176.68 C 528.53 162.97 520.96 150.46 513.91 138.84 C 510.65 142.85 504.82 146.87 504.49 151.92 C 511.38 155.61 517.57 160.76 520.97 167.98 C 513.07 156.82 500.66 150.38 488.10 145.76 C 495.84 153.66 506.59 157.73 514.39 165.51 C 521.07 174.11 526.24 184.15 528.76 194.76 C 531.42 194.55 534.09 194.35 536.71 193.78 C 535.46 162.15 517.53 133.99 496.74 111.25 C 485.25 101.12 473.07 90.64 458.04 86.41 M 531.33 91.49 C 531.32 95.35 531.24 99.21 531.38 103.06 C 533.99 102.71 536.44 100.07 539.05 101.49 C 541.23 100.30 543.57 99.04 546.12 99.90 C 543.62 100.19 541.12 100.68 538.94 101.98 C 538.49 101.93 537.60 101.81 537.15 101.76 C 535.16 102.18 533.19 102.60 531.33 103.45 C 531.41 105.61 531.45 107.76 531.53 109.92 C 537.37 108.50 543.29 107.34 548.90 105.09 C 547.97 99.42 545.79 94.06 544.61 88.45 C 540.04 88.77 535.77 90.53 531.33 91.49 M 452.12 91.35 C 461.20 104.88 465.46 121.56 477.31 133.22 C 474.30 125.78 470.07 118.92 466.25 111.87 C 461.94 104.81 458.80 96.58 452.12 91.35 M 467.10 110.10 C 467.96 114.12 470.95 117.29 472.76 120.92 C 475.97 117.88 477.05 112.76 481.52 111.18 C 477.87 113.70 475.92 117.76 473.08 121.04 C 473.54 122.92 474.48 124.60 475.73 126.08 C 479.73 120.64 483.17 114.57 489.15 110.99 C 484.88 106.53 479.93 102.81 474.78 99.44 C 472.30 103.05 469.25 106.27 467.10 110.10 M 582.17 106.94 C 582.80 107.10 584.04 107.42 584.67 107.58 C 587.30 107.13 590.92 106.20 592.86 108.66 C 594.36 108.69 595.88 108.72 597.40 108.75 C 597.64 106.98 597.91 105.21 598.21 103.46 C 593.72 102.81 589.41 101.06 584.82 101.15 C 583.92 103.07 583.02 105.00 582.17 106.94 M 531.48 110.34 C 531.35 120.62 532.55 130.83 532.60 141.10 C 532.49 144.25 536.16 143.71 538.30 143.90 C 539.29 142.74 540.33 141.63 541.37 140.51 C 544.22 141.11 548.20 142.95 548.46 138.45 C 549.52 140.07 553.14 140.36 552.80 137.74 C 554.28 139.27 556.06 140.76 557.90 138.61 C 556.17 127.22 552.47 116.23 549.27 105.19 C 543.51 107.47 537.52 109.01 531.48 110.34 M 581.46 109.35 C 575.25 122.94 570.33 137.08 566.25 151.43 C 567.50 151.47 568.68 151.79 569.78 152.37 C 570.91 151.95 572.05 151.53 573.20 151.11 C 574.46 151.75 575.73 152.39 577.01 153.03 C 577.54 152.65 578.58 151.89 579.11 151.52 C 580.07 152.43 581.02 153.34 582.01 154.26 C 590.23 140.60 594.53 125.00 597.45 109.44 C 592.09 109.59 586.26 105.04 581.46 109.35 M 475.85 126.08 C 477.23 130.33 479.68 134.21 482.97 137.24 C 484.83 134.63 486.55 131.93 488.36 129.29 C 492.04 126.43 495.49 123.17 498.05 119.24 C 495.26 116.54 492.50 113.80 489.79 111.01 C 483.52 114.45 480.29 120.85 475.85 126.08 M 498.00 119.88 C 495.40 123.59 492.35 127.01 488.56 129.53 C 486.69 132.32 484.79 135.08 482.93 137.87 C 486.63 141.80 490.52 146.19 496.16 147.12 C 500.79 142.53 504.27 136.92 509.94 133.40 C 506.51 130.60 504.88 125.69 500.70 123.96 C 499.83 125.14 498.97 126.33 498.03 127.45 C 498.90 125.88 499.91 124.40 500.96 122.93 C 499.97 121.91 498.99 120.89 498.00 119.88 M 496.74 147.99 C 498.91 149.02 501.09 150.04 503.29 151.02 C 506.21 146.73 509.62 142.77 513.17 138.99 C 512.39 137.11 511.25 135.43 510.06 133.80 C 504.57 137.43 500.39 142.59 496.74 147.99 M 551.42 142.30 C 550.34 141.65 549.25 141.03 548.21 140.35 C 547.51 141.12 546.85 141.92 546.24 142.76 C 545.56 142.58 544.89 142.40 544.22 142.25 C 544.11 142.77 543.89 143.83 543.78 144.36 L 543.40 141.85 C 540.14 143.35 536.70 145.15 533.07 143.60 C 534.10 160.35 537.12 176.90 537.90 193.68 C 543.94 193.36 549.92 192.39 555.98 192.39 C 554.26 178.88 555.91 165.16 559.16 152.01 C 559.47 150.09 560.28 147.81 559.11 146.05 C 558.63 146.10 557.68 146.19 557.21 146.24 C 556.62 145.91 555.46 145.25 554.87 144.92 C 554.28 145.79 553.70 146.66 553.13 147.54 C 552.64 147.19 551.67 146.48 551.18 146.12 C 550.13 148.21 547.82 148.79 546.25 150.31 C 546.38 150.00 546.64 149.38 546.77 149.07 C 545.15 149.12 543.53 149.17 541.91 149.23 C 541.31 150.25 540.71 151.26 540.11 152.28 C 538.44 151.78 536.77 151.30 535.11 150.81 C 536.75 151.17 538.37 151.55 540.02 151.92 C 540.65 150.90 541.27 149.89 541.91 148.89 C 543.11 148.85 544.32 148.82 545.53 148.79 C 546.05 148.13 546.58 147.47 547.13 146.82 C 547.66 146.95 548.70 147.20 549.22 147.33 C 549.73 146.88 550.76 145.99 551.28 145.54 C 551.84 146.06 552.42 146.59 553.00 147.12 C 553.57 146.36 554.16 145.62 554.75 144.87 C 555.82 145.29 556.91 145.37 558.04 145.14 C 559.24 143.27 558.43 141.07 558.37 139.04 C 557.19 139.49 556.02 139.95 554.86 140.42 C 553.48 139.99 550.27 139.84 551.42 142.30 M 569.57 152.62 C 569.46 153.03 569.23 153.86 569.11 154.28 C 568.26 153.48 567.41 152.68 566.56 151.89 C 561.92 164.68 561.49 178.38 561.18 191.80 C 563.75 192.92 566.83 192.07 569.60 192.32 C 569.83 179.05 575.49 166.25 581.84 154.74 C 580.93 153.78 580.02 152.82 579.12 151.88 C 578.57 152.25 577.47 153.01 576.92 153.38 C 575.65 152.71 574.37 152.04 573.10 151.39 C 571.92 151.81 570.74 152.22 569.57 152.62 M 511.43 201.73 C 511.58 221.09 513.07 240.42 513.65 259.78 C 538.16 249.92 565.54 247.06 591.55 251.62 C 591.00 233.61 589.34 215.64 588.44 197.65 C 562.92 193.37 536.49 195.68 511.43 201.73 M 320.80 201.78 C 301.23 234.16 282.14 266.83 262.15 298.95 C 280.47 334.44 298.25 370.20 316.52 405.71 C 319.84 405.80 323.16 405.79 326.48 405.84 C 326.36 403.63 326.18 401.43 325.81 399.26 C 324.48 398.96 323.16 398.67 321.84 398.39 C 321.51 395.23 319.62 392.63 318.14 389.93 C 302.43 360.41 286.95 330.76 271.39 301.17 C 288.14 270.05 309.67 241.61 326.86 210.74 C 360.94 209.91 395.01 209.02 429.10 208.39 C 445.74 240.38 463.97 271.64 480.12 303.87 C 479.56 304.16 478.42 304.75 477.86 305.04 C 473.16 316.57 467.06 327.45 461.62 338.63 C 451.50 358.20 442.19 378.22 431.39 397.41 C 429.60 397.46 427.81 397.51 426.03 397.55 C 427.03 400.47 426.97 403.57 426.27 406.55 C 429.78 406.49 433.29 406.55 436.80 406.64 C 454.40 372.25 472.94 338.26 490.85 304.04 C 473.32 269.22 454.19 235.17 436.76 200.28 C 400.84 199.95 364.90 200.73 329.00 199.69 C 326.20 199.92 322.21 198.43 320.80 201.78 M 329.10 213.40 C 312.68 240.35 295.18 266.66 278.21 293.28 C 276.78 295.59 275.16 297.79 273.33 299.80 C 289.85 330.65 305.75 361.85 322.24 392.72 C 322.94 394.24 323.96 395.58 325.40 396.49 C 324.64 388.96 324.00 381.41 323.38 373.87 C 317.07 373.68 313.69 366.95 311.25 362.00 C 309.81 355.26 318.87 352.00 322.81 357.20 C 322.06 349.77 323.65 342.42 323.41 335.00 C 323.44 330.00 323.48 324.20 327.44 320.53 C 329.35 320.57 331.26 320.56 333.18 320.52 C 329.73 317.89 325.27 313.57 327.89 308.87 C 330.58 305.13 335.23 306.91 337.95 309.56 C 339.68 303.65 347.21 301.35 352.12 304.91 C 355.38 300.01 362.97 298.53 366.35 304.12 C 369.59 301.39 374.01 300.58 377.32 303.72 C 381.31 301.10 386.42 302.19 389.65 305.51 C 392.18 302.08 396.35 302.16 399.85 303.94 C 404.05 300.72 410.70 302.53 411.17 308.27 C 418.26 306.02 419.56 314.51 414.87 318.11 C 417.31 319.11 421.29 318.85 422.09 321.95 C 422.38 329.19 422.26 336.45 422.36 343.70 C 425.92 342.68 430.69 342.84 431.91 347.12 C 433.75 354.13 427.68 360.12 422.68 364.17 C 422.58 374.60 422.82 385.03 422.49 395.47 C 424.98 395.48 427.48 395.50 429.97 395.49 C 442.38 368.78 456.32 342.77 469.48 316.40 C 471.85 312.10 473.62 307.38 476.96 303.69 C 460.88 272.85 443.42 242.72 427.93 211.57 C 394.98 211.97 362.04 213.01 329.10 213.40 M 513.72 261.79 C 513.78 264.39 513.84 267.00 513.92 269.62 C 538.70 259.58 566.18 258.51 592.41 261.94 C 592.42 259.16 592.38 256.34 591.50 253.67 C 565.51 249.50 538.17 251.83 513.72 261.79 M 514.35 271.68 C 514.28 281.71 515.12 291.71 515.31 301.74 C 542.04 301.52 568.76 301.61 595.48 301.38 C 593.70 289.46 593.94 277.33 592.41 265.39 C 566.74 259.99 538.93 262.09 514.35 271.68 M 80.11 410.00 C 97.69 444.64 115.94 479.01 134.03 513.41 C 178.50 513.80 222.97 512.84 267.44 513.73 C 282.97 478.10 297.81 442.17 313.90 406.78 C 296.10 370.94 277.52 335.48 259.48 299.75 C 218.83 299.73 178.18 299.47 137.56 298.37 C 117.92 335.32 99.61 373.00 80.11 410.00 M 353.58 304.89 C 353.51 308.26 353.47 311.74 355.31 314.71 C 360.74 314.64 366.13 313.94 371.54 313.58 C 374.15 311.24 376.54 308.42 376.71 304.73 C 372.95 301.79 367.67 303.30 366.21 307.88 C 365.20 304.80 363.39 302.07 360.00 301.37 C 357.75 302.34 355.60 303.51 353.58 304.89 M 378.59 304.66 C 377.46 308.03 378.81 311.34 381.41 313.58 C 385.76 313.59 390.08 314.05 394.40 314.55 C 396.36 312.30 399.28 310.17 399.47 307.00 C 398.56 303.92 395.18 304.37 392.67 304.34 C 391.63 305.79 390.62 307.25 389.62 308.73 C 387.33 304.97 382.88 301.99 378.59 304.66 M 400.63 304.57 C 401.72 308.58 399.31 311.80 396.87 314.65 C 402.38 314.57 408.07 312.54 412.04 317.75 C 414.89 315.89 418.06 312.81 415.33 309.39 C 413.47 309.77 411.63 310.18 409.79 310.61 C 410.45 305.35 405.26 301.52 400.63 304.57 M 493.73 304.33 C 476.31 339.19 457.24 373.22 439.17 407.75 C 444.52 417.33 449.86 426.90 454.97 436.61 C 458.44 435.19 462.06 434.06 465.86 434.38 C 461.82 426.07 457.42 417.93 453.33 409.64 C 452.21 407.70 452.15 405.28 453.39 403.38 C 466.39 378.09 479.59 352.90 492.89 327.76 C 495.67 322.99 497.48 317.57 501.38 313.54 C 537.44 313.15 573.52 313.49 609.58 313.47 C 626.58 345.47 642.17 378.33 657.92 411.00 C 655.27 413.99 653.39 417.52 651.35 420.92 C 651.90 422.00 652.45 423.09 653.00 424.19 C 651.71 424.24 650.43 424.29 649.16 424.35 C 634.77 447.85 620.04 471.15 605.73 494.70 C 569.73 495.86 533.68 494.93 497.66 495.34 C 489.21 479.38 480.77 463.42 472.57 447.33 C 471.97 447.42 470.76 447.62 470.16 447.71 C 472.31 442.37 469.42 433.75 462.42 435.51 C 451.32 436.43 446.15 446.73 439.88 454.35 C 447.97 456.41 457.04 458.15 464.45 453.05 C 472.94 470.79 483.08 487.77 491.81 505.42 C 529.84 505.48 567.83 506.61 605.87 506.71 C 626.51 474.89 647.10 443.00 667.73 411.19 C 651.76 375.23 634.74 339.69 619.02 303.60 C 577.26 303.89 535.51 304.78 493.73 304.33 M 338.50 313.09 C 336.30 310.73 332.89 306.38 329.54 309.53 C 326.60 313.51 331.65 317.76 334.88 319.70 C 337.31 319.02 339.41 317.67 341.00 315.69 C 341.13 316.25 341.39 317.37 341.52 317.92 C 343.02 317.25 344.54 316.55 345.75 315.40 C 346.47 315.71 347.19 316.03 347.92 316.35 C 348.57 316.13 349.87 315.69 350.52 315.47 C 352.31 312.46 352.85 309.04 351.25 305.82 C 345.59 301.92 338.57 306.65 338.50 313.09 M 339.67 319.92 C 340.10 327.31 340.87 334.68 341.62 342.05 C 342.30 342.88 342.97 343.72 343.65 344.56 C 347.78 342.56 355.34 342.07 356.30 347.98 C 356.20 354.28 350.07 357.80 344.60 358.96 C 346.98 371.09 348.54 383.41 348.64 395.78 C 361.66 395.62 374.68 395.58 387.70 395.61 C 388.72 389.20 388.25 382.67 388.26 376.20 C 381.45 378.76 374.23 372.80 373.74 365.97 C 374.18 359.36 383.93 355.22 387.57 361.81 C 385.80 346.65 387.43 330.86 382.09 316.30 C 367.85 315.71 353.57 316.72 339.67 319.92 M 501.64 315.40 C 487.01 345.49 470.79 374.84 455.45 404.58 C 455.04 405.51 455.12 406.40 455.70 407.27 C 461.34 418.20 467.04 429.11 472.53 440.12 C 479.42 436.55 485.01 430.88 491.53 426.66 C 487.31 426.03 481.92 426.44 479.43 422.21 C 484.23 426.72 486.88 418.86 487.18 414.94 C 489.89 407.00 481.74 401.95 479.15 395.37 C 478.38 395.39 477.62 395.42 476.86 395.45 C 473.38 402.07 468.93 409.24 470.60 417.05 C 471.47 420.97 475.41 422.41 478.61 423.97 C 472.52 424.03 467.77 417.81 468.93 411.96 C 470.17 404.51 473.57 397.19 478.88 391.78 C 480.15 396.14 482.79 399.89 485.61 403.38 C 489.96 408.04 489.29 415.44 486.63 420.78 C 486.12 422.24 484.38 423.81 485.76 425.31 C 493.17 426.28 500.04 421.88 507.55 423.43 C 507.05 418.35 508.30 413.31 510.67 408.82 C 510.28 408.52 509.50 407.91 509.12 407.60 C 509.70 407.25 510.86 406.55 511.44 406.20 C 510.86 395.87 499.37 392.90 490.85 392.53 C 491.22 393.41 491.57 394.31 491.90 395.23 C 491.60 395.41 490.99 395.79 490.69 395.97 C 491.90 404.62 499.19 412.96 508.65 410.53 C 496.14 415.67 488.47 400.44 488.12 390.15 C 493.82 392.05 500.25 391.29 505.51 394.56 C 509.95 396.83 512.49 401.52 512.87 406.40 C 516.35 403.16 512.21 398.47 512.27 394.50 C 515.20 394.55 518.71 395.54 521.10 393.24 C 527.71 387.76 529.20 379.01 531.76 371.30 C 522.14 372.41 510.33 373.12 505.33 382.89 C 504.56 387.27 507.86 390.36 510.04 393.69 C 505.34 390.74 501.76 383.98 506.24 379.27 C 512.90 370.03 525.37 371.93 534.78 367.83 C 530.56 376.40 530.47 387.18 523.01 393.96 C 520.62 396.60 516.99 396.94 513.66 396.56 C 515.83 403.12 518.42 409.67 522.25 415.48 C 523.30 411.93 523.39 407.84 526.07 405.02 C 530.16 400.05 537.14 399.92 542.68 397.51 C 541.61 389.13 546.79 381.75 552.01 375.77 C 552.75 381.53 558.83 384.07 560.37 389.45 C 561.17 392.32 559.98 395.21 559.23 397.96 C 561.18 397.09 563.23 396.41 565.37 396.20 C 574.11 402.81 588.79 394.40 587.99 383.36 C 587.27 383.61 585.83 384.11 585.12 384.36 C 576.67 382.89 568.16 387.13 562.48 393.27 C 567.86 383.13 580.23 383.37 589.99 381.52 C 588.92 385.05 588.27 388.72 587.02 392.20 C 584.54 397.06 578.60 398.12 574.05 400.16 C 578.70 401.87 583.60 402.63 588.55 402.63 C 580.39 406.25 576.35 414.96 568.31 418.66 C 570.07 420.27 571.70 422.04 573.16 423.94 C 576.90 422.52 580.79 421.44 584.82 421.31 C 579.92 415.77 583.83 407.78 589.16 404.18 C 596.08 399.83 604.46 399.48 612.15 397.32 C 610.84 399.90 608.05 401.16 606.48 403.53 C 603.70 407.31 603.16 412.37 599.78 415.77 C 597.45 418.40 594.17 419.83 591.37 421.88 C 595.61 423.17 599.79 424.66 604.03 425.97 C 604.96 424.35 605.94 422.75 606.93 421.16 C 603.65 416.82 605.57 410.74 610.04 408.11 C 617.99 403.32 627.78 403.91 636.72 403.84 C 629.97 408.21 628.24 417.07 621.34 421.33 C 616.30 425.57 607.50 418.43 604.87 426.27 C 610.39 429.90 616.38 433.66 623.17 433.96 C 622.64 428.45 624.60 422.60 629.60 419.73 C 635.39 415.37 642.58 418.84 648.84 419.87 C 651.19 417.19 652.69 413.87 654.83 411.03 C 638.88 379.71 623.47 348.10 608.25 316.42 C 572.71 316.31 537.17 316.11 501.64 315.40 M 383.08 316.24 C 388.30 330.47 386.71 345.84 388.75 360.63 C 391.76 360.27 395.23 360.08 397.47 362.55 C 399.53 368.45 394.05 372.98 389.44 375.42 C 389.60 382.15 389.32 388.88 389.36 395.62 C 398.35 395.69 407.33 395.16 416.31 395.51 C 416.26 384.64 416.50 373.76 416.37 362.89 C 412.26 361.57 407.35 358.95 407.32 354.01 C 407.09 349.42 411.71 346.86 415.69 346.37 C 414.98 337.57 415.96 327.86 410.88 320.13 C 402.01 317.17 392.39 316.76 383.08 316.24 M 327.53 324.62 C 326.92 335.12 328.71 345.64 328.67 356.17 C 331.23 356.25 334.75 356.18 335.73 359.15 C 336.16 363.88 332.45 367.61 329.43 370.78 C 329.73 379.15 330.61 387.49 330.52 395.88 C 336.06 396.45 341.62 395.41 347.18 395.72 C 347.61 382.94 345.02 370.31 343.24 357.71 C 337.78 357.65 330.10 353.93 331.41 347.38 C 332.29 343.11 336.71 341.55 340.58 341.37 C 339.48 334.35 339.43 327.24 338.41 320.21 C 334.72 321.52 330.91 322.61 327.53 324.62 M 412.27 320.22 C 417.34 328.78 415.39 339.06 417.78 348.27 C 420.01 347.35 419.17 344.79 419.38 342.98 C 419.11 336.02 419.64 329.03 418.73 322.11 C 416.58 321.45 414.43 320.80 412.27 320.22 M 324.76 333.27 C 324.19 341.50 323.32 349.70 323.65 357.95 C 324.37 357.80 325.81 357.48 326.53 357.32 C 325.94 349.33 326.35 341.11 324.76 333.27 M 332.44 348.97 C 333.96 354.23 339.69 355.34 343.94 357.55 C 348.68 356.47 354.91 353.80 354.56 347.97 C 353.87 343.89 348.72 344.68 345.68 344.48 C 344.92 345.17 344.17 345.87 343.42 346.58 C 342.33 345.44 341.23 344.32 340.13 343.21 C 336.31 342.91 333.61 345.60 332.44 348.97 M 419.10 350.33 C 418.63 349.82 417.69 348.78 417.22 348.26 C 413.35 347.60 409.06 349.76 408.66 353.99 C 410.10 360.08 417.30 362.05 422.80 361.80 C 427.16 358.55 432.63 352.17 429.58 346.54 C 426.09 341.95 421.34 347.20 419.10 350.33 M 314.68 356.26 C 309.08 362.01 316.41 368.87 320.89 372.62 C 327.27 371.60 334.89 366.09 334.29 359.05 C 330.08 354.98 324.99 359.86 322.35 363.32 C 321.93 361.48 321.57 359.64 321.30 357.78 C 319.35 356.37 316.99 356.16 314.68 356.26 M 375.45 365.97 C 375.51 370.77 380.13 373.52 383.87 375.54 C 389.34 374.05 396.92 370.77 396.29 363.96 C 393.81 360.73 389.57 362.92 386.44 363.68 C 384.91 357.27 375.61 360.53 375.45 365.97 M 417.75 362.93 C 417.70 373.80 417.69 384.67 417.76 395.54 C 418.42 395.50 419.74 395.42 420.40 395.39 C 420.81 386.27 419.65 377.10 419.74 367.96 C 419.51 366.10 420.41 363.24 417.75 362.93 M 324.45 372.67 C 324.82 380.43 325.37 388.22 326.66 395.89 C 327.20 395.85 328.28 395.79 328.81 395.76 C 328.57 387.84 327.66 379.97 327.41 372.06 C 326.67 372.21 325.19 372.52 324.45 372.67 M 551.16 379.04 C 547.93 383.77 543.73 388.75 544.35 394.86 C 545.26 399.64 549.20 403.00 553.97 403.67 C 557.33 399.88 559.75 395.18 559.46 389.97 C 557.71 385.64 553.91 382.69 551.16 379.04 M 404.31 401.99 C 406.34 407.49 412.24 409.46 417.07 411.75 C 420.93 409.41 426.03 406.19 425.35 400.97 C 423.89 396.85 418.56 397.96 415.81 400.05 C 413.26 394.18 405.79 396.69 404.31 401.99 M 349.48 398.51 C 349.61 399.05 349.87 400.13 349.99 400.68 C 343.91 397.98 337.39 403.74 339.65 410.00 C 342.33 413.43 346.47 415.94 350.71 416.79 C 356.20 415.33 360.97 410.46 362.37 404.98 C 362.21 399.84 355.02 399.57 351.96 402.50 C 352.32 400.35 353.71 399.02 356.12 398.53 C 353.90 398.56 351.69 398.54 349.48 398.51 M 359.70 398.53 C 362.20 400.41 364.18 402.85 364.35 406.12 C 372.36 406.27 380.37 406.21 388.39 406.25 C 388.33 403.61 388.24 400.97 388.11 398.33 C 378.64 398.31 369.17 398.42 359.70 398.53 M 389.30 398.38 C 389.45 401.01 389.57 403.64 389.70 406.28 C 394.41 406.30 399.13 406.25 403.85 406.35 C 403.33 403.58 403.29 400.73 404.52 398.14 C 399.45 398.24 394.37 398.12 389.30 398.38 M 549.57 414.34 C 550.84 413.37 551.92 412.19 552.81 410.87 C 552.74 411.68 552.60 413.29 552.53 414.10 C 558.18 415.47 564.33 419.78 570.03 416.23 C 575.20 413.01 578.44 407.58 583.19 403.85 C 573.57 400.96 562.57 400.16 554.48 407.33 C 557.40 402.44 563.36 401.00 568.53 399.86 C 559.02 394.42 552.13 406.82 549.57 414.34 M 327.65 405.83 C 330.93 405.81 334.21 405.81 337.50 405.75 C 338.60 402.93 340.43 400.49 342.80 398.60 C 337.81 398.76 332.82 398.51 327.85 398.79 C 325.61 400.37 327.85 403.53 327.65 405.83 M 542.97 398.05 C 540.81 405.70 542.86 414.71 537.18 421.17 C 534.80 424.14 530.80 423.73 527.43 423.64 C 527.55 425.02 527.67 426.42 527.79 427.81 C 533.77 427.53 539.75 427.34 545.70 426.62 C 543.44 418.01 550.17 411.35 552.84 403.81 C 548.44 404.22 545.63 400.95 542.97 398.05 M 527.99 404.95 C 523.39 409.84 522.34 417.33 527.03 422.55 C 530.58 422.69 535.16 422.68 537.04 419.01 C 540.73 413.43 540.47 406.61 540.76 400.21 C 536.48 401.74 531.44 401.59 527.99 404.95 M 585.62 420.72 C 596.32 420.73 602.99 410.79 604.86 401.30 C 594.83 400.77 579.92 409.00 585.62 420.72 M 608.42 411.42 C 606.21 413.40 606.52 416.46 606.68 419.13 C 610.41 419.99 614.09 422.02 618.02 421.19 C 624.36 418.06 628.60 411.73 631.01 405.27 C 623.23 405.55 614.38 405.66 608.42 411.42 M 513.38 427.38 C 513.53 428.12 513.85 429.59 514.00 430.32 C 520.79 424.51 520.89 412.50 514.76 406.42 C 509.37 410.78 504.54 423.65 513.38 427.38 M 331.02 416.60 C 330.44 417.54 329.87 418.49 329.31 419.44 C 324.41 418.15 319.60 422.53 321.39 427.54 C 324.35 431.99 330.56 431.71 335.33 431.66 C 337.40 427.86 339.54 423.49 338.15 419.09 C 336.92 416.21 333.67 415.99 331.02 416.60 M 516.74 429.87 C 520.07 429.43 523.37 428.77 526.70 428.31 C 526.72 423.02 523.12 418.87 520.54 414.59 C 520.81 419.97 519.40 425.21 516.74 429.87 M 392.89 422.35 C 392.06 421.59 391.24 420.83 390.43 420.08 C 386.55 419.90 382.55 422.99 382.58 427.03 C 384.92 432.86 392.22 431.63 397.25 431.49 C 401.40 428.18 403.45 420.86 398.46 417.42 C 395.03 416.01 393.90 419.95 392.89 422.35 M 549.15 420.62 C 549.34 422.80 550.25 424.79 551.39 426.64 C 558.52 426.90 565.89 428.65 572.17 424.15 C 566.55 417.07 556.80 418.45 549.15 420.62 M 633.01 419.63 C 627.16 421.80 623.56 427.74 624.17 433.95 C 626.42 433.36 628.63 432.56 630.98 432.42 C 629.41 433.53 627.84 434.66 626.62 436.16 C 638.01 438.96 637.44 422.21 647.28 422.05 C 643.08 419.26 637.87 419.05 633.01 419.63 M 576.14 424.23 C 579.84 430.32 588.25 431.52 594.24 434.92 C 595.78 443.10 588.29 452.16 591.75 460.18 C 593.37 456.16 598.12 453.76 602.07 455.96 C 605.25 459.69 603.93 465.08 605.29 469.49 C 605.67 472.90 608.40 475.26 609.59 478.33 C 601.80 477.94 593.39 478.31 585.99 475.11 C 585.12 481.02 583.29 486.72 582.10 492.57 C 589.33 492.54 596.57 492.82 603.79 492.65 C 618.17 470.28 632.15 447.57 645.75 424.73 C 638.83 426.78 638.78 437.24 630.84 437.61 C 620.90 437.33 611.80 432.22 603.15 427.71 C 594.82 423.61 585.20 422.05 576.14 424.23 M 473.40 441.79 C 481.87 458.67 490.68 475.39 498.70 492.50 C 504.03 492.53 509.36 492.51 514.69 492.56 C 512.07 478.62 510.44 464.48 509.09 450.37 C 508.03 450.49 505.90 450.72 504.84 450.83 C 509.59 447.41 515.94 443.52 515.64 436.82 C 513.55 434.93 511.17 433.37 508.35 432.87 C 509.81 432.23 511.23 431.49 512.73 430.90 C 510.95 428.69 509.13 426.52 507.34 424.33 C 493.31 422.31 483.94 434.88 473.40 441.79 M 572.37 426.12 C 572.31 426.69 572.17 427.83 572.11 428.40 C 574.73 428.81 577.33 429.35 579.96 429.69 C 578.01 427.42 575.40 426.02 572.37 426.12 M 514.92 432.91 C 518.72 437.96 515.84 444.21 511.52 447.81 C 513.21 462.73 516.12 477.60 516.49 492.62 C 537.55 492.45 558.60 492.51 579.65 492.58 C 581.23 484.43 583.62 476.38 583.97 468.07 C 587.01 460.66 588.97 452.40 586.75 444.48 C 586.67 449.89 585.58 456.36 580.17 458.98 C 575.42 462.43 569.13 458.60 564.37 461.79 C 565.83 457.81 565.26 453.55 565.71 449.44 C 566.92 442.82 573.78 438.08 580.41 439.35 C 582.14 441.02 584.28 442.12 586.54 442.93 C 585.12 439.53 585.53 433.58 580.70 433.20 C 559.12 428.22 536.57 428.74 514.92 432.91 M 585.46 434.65 C 586.93 438.99 588.03 443.43 589.05 447.89 C 590.08 444.30 590.86 440.65 591.54 436.99 C 589.51 436.21 587.48 435.42 585.46 434.65 M 566.56 458.27 C 571.23 459.75 576.85 460.29 580.78 456.78 C 586.99 453.23 585.26 442.17 578.85 440.23 C 569.59 440.25 565.20 450.12 566.56 458.27 M 364.95 445.28 C 364.36 446.82 363.77 448.36 363.20 449.92 C 358.52 446.89 350.08 449.53 351.63 456.07 C 353.90 462.38 362.08 460.14 367.26 460.53 C 371.91 456.35 372.51 446.50 364.95 445.28 M 593.30 463.19 C 588.00 461.88 583.45 467.25 585.61 472.25 C 591.00 477.18 599.13 476.63 605.87 475.63 C 602.51 469.72 603.75 462.64 601.35 456.44 C 597.08 455.60 591.97 458.23 593.30 463.19 M 402.43 468.98 C 404.28 473.67 407.60 477.77 411.88 480.45 C 417.28 481.03 423.97 478.20 425.62 472.68 C 426.50 467.34 418.59 466.30 415.62 469.59 C 415.01 466.80 414.21 463.39 410.98 462.61 C 406.91 461.87 403.71 465.50 402.43 468.98 M 316.92 480.87 C 313.48 484.25 316.81 488.88 318.87 492.04 C 322.72 499.74 334.57 496.28 338.36 490.18 C 340.98 484.29 333.04 479.47 328.26 482.92 C 326.70 478.20 320.00 476.89 316.92 480.87 M 375.66 494.33 C 381.74 500.28 393.20 496.19 395.63 488.68 C 396.35 481.11 385.76 481.28 382.39 486.30 C 383.33 483.30 382.11 480.96 378.95 480.34 C 372.78 481.66 369.26 490.95 375.66 494.33 M 346.59 509.06 C 348.60 513.64 353.08 516.51 356.93 519.44 C 361.80 518.39 369.22 515.72 368.54 509.57 C 366.61 504.07 359.98 505.96 356.09 508.03 C 356.41 506.65 356.74 505.28 357.09 503.92 C 355.72 503.10 354.35 502.28 352.99 501.48 C 349.30 502.01 345.43 504.85 346.59 509.06 M 426.23 518.53 C 422.90 518.20 419.94 519.55 417.47 521.70 C 414.49 529.35 424.28 532.15 429.82 529.93 C 433.81 525.99 436.81 518.76 433.36 513.70 C 429.88 510.31 426.61 515.24 426.23 518.53 M 398.47 537.55 C 393.14 533.53 386.49 541.69 390.54 546.46 C 394.66 549.67 400.29 548.38 404.95 547.30 C 407.74 543.14 411.02 536.52 406.54 532.42 C 402.75 529.72 399.19 534.05 398.47 537.55 M 338.08 540.77 C 331.79 536.77 324.78 544.79 328.10 550.80 C 331.75 555.18 338.13 554.42 343.23 554.26 C 347.19 549.11 352.19 542.01 348.63 535.46 C 345.01 529.93 338.65 536.21 338.08 540.77 M 360.55 562.88 C 360.05 561.87 359.57 560.87 359.09 559.87 C 355.78 560.73 353.19 563.58 353.26 567.11 C 359.50 572.75 370.26 568.56 370.37 559.98 C 368.22 554.20 361.55 558.65 360.55 562.88 M 410.41 585.09 C 413.09 589.12 417.84 591.19 422.07 593.24 C 428.84 593.27 437.29 583.91 430.09 578.36 C 426.38 577.79 424.12 580.92 421.66 583.08 C 421.24 580.93 422.19 578.05 419.96 576.72 C 415.24 575.59 409.58 580.16 410.41 585.09 M 315.21 602.24 C 312.79 608.31 319.71 611.91 324.03 614.35 C 329.92 614.97 338.54 611.39 338.66 604.54 C 337.45 599.19 330.73 598.10 326.88 601.50 C 326.26 594.75 316.35 596.80 315.21 602.24 M 380.67 609.00 C 383.38 613.50 388.07 616.85 392.99 618.47 C 398.82 617.32 404.66 612.17 403.62 605.72 C 399.77 602.65 394.82 604.62 392.16 608.21 C 390.74 602.31 379.70 602.04 380.67 609.00 M 417.18 645.27 C 416.58 650.65 423.14 652.23 426.04 655.66 C 431.43 655.58 438.67 652.41 438.96 646.25 C 436.06 642.75 430.92 642.19 427.29 644.90 C 427.37 644.06 427.55 642.39 427.64 641.56 C 424.00 639.44 417.85 640.49 417.18 645.27 M 333.81 653.32 C 333.69 652.50 333.47 650.86 333.35 650.04 C 328.92 648.25 323.82 652.35 324.81 657.02 C 325.79 663.00 332.69 665.52 338.04 665.33 C 343.17 662.99 350.46 656.67 346.27 650.66 C 342.35 646.65 336.97 650.19 333.81 653.32 M 440.55 690.68 C 436.05 689.60 429.49 691.50 429.50 697.00 C 429.19 701.13 433.92 702.77 437.30 702.72 C 441.07 702.72 446.50 703.29 447.95 698.79 C 451.84 693.06 452.63 682.78 443.89 681.37 C 439.75 682.46 438.93 687.20 440.55 690.68 M 421.79 738.03 C 420.62 744.61 428.90 745.85 433.03 748.67 C 437.33 746.43 443.71 743.91 443.75 738.23 C 441.44 734.44 436.26 735.38 433.29 737.95 C 431.63 732.20 423.44 732.55 421.79 738.03 Z" />
<path fill="#000000" opacity="1.00" d=" M 146.54 307.59 C 148.99 307.01 151.47 306.48 154.00 306.60 C 186.73 306.71 219.43 307.66 252.16 307.67 C 253.14 310.84 254.64 313.80 256.34 316.64 C 272.90 346.68 288.85 377.05 305.35 407.13 C 290.94 438.97 276.64 470.90 261.54 502.41 C 220.57 503.33 179.41 505.53 138.33 505.69 C 122.99 474.16 106.19 443.31 91.20 411.62 C 91.80 411.56 92.99 411.44 93.59 411.38 C 109.09 441.84 124.38 472.41 140.17 502.72 C 147.82 502.79 155.47 502.50 163.13 502.41 C 158.63 490.16 156.10 477.27 154.60 464.33 C 154.02 456.80 152.73 448.94 155.44 441.67 C 166.15 436.18 178.23 434.04 190.12 433.07 C 187.31 424.32 178.51 418.35 169.92 416.34 C 163.71 418.63 158.75 423.60 153.85 427.88 C 150.37 436.14 145.24 443.66 143.01 452.43 C 140.81 447.31 141.36 441.45 141.39 436.00 C 143.51 425.77 151.27 418.11 157.47 410.14 C 148.95 405.16 139.07 400.62 129.00 403.55 C 118.03 404.65 107.02 407.90 95.98 405.69 C 93.30 404.92 91.15 407.10 88.89 408.15 C 92.95 404.45 96.37 400.00 100.99 396.96 C 108.11 393.28 115.80 389.70 124.03 390.40 C 138.67 389.36 152.36 395.96 165.01 402.50 C 169.83 400.36 174.48 397.82 179.56 396.29 C 174.26 390.09 166.45 386.14 164.56 377.54 C 157.94 374.20 156.53 366.47 151.00 362.01 C 147.95 359.50 147.67 354.85 144.09 352.84 C 139.33 350.01 135.17 345.31 135.13 339.48 C 142.01 345.15 148.55 351.31 156.41 355.68 C 170.34 362.78 180.49 375.37 188.56 388.42 C 191.87 394.22 192.06 401.39 196.39 406.68 C 195.20 398.26 200.67 390.02 196.93 381.97 C 196.26 366.16 197.80 349.52 205.51 335.37 C 207.92 329.84 216.55 331.12 218.18 324.97 C 219.61 319.38 225.18 316.92 229.64 314.12 C 226.72 321.59 225.51 329.85 226.83 337.78 C 228.86 342.74 225.67 347.66 226.22 352.76 C 224.89 361.31 222.87 369.91 219.56 377.91 C 220.52 368.03 225.62 358.77 224.57 348.69 C 224.25 345.37 227.98 342.54 225.95 339.25 C 222.54 332.01 225.99 324.35 226.65 316.97 C 224.99 318.87 224.14 321.24 223.47 323.64 C 223.46 322.52 223.42 320.28 223.40 319.15 C 221.20 321.33 219.86 324.08 218.73 326.90 C 216.60 331.68 209.70 330.70 207.34 335.35 C 199.60 347.70 198.12 362.75 197.63 376.99 C 196.91 382.45 200.92 387.52 198.77 392.89 C 196.06 401.86 198.47 410.94 199.53 419.90 C 200.19 418.93 200.86 417.96 201.55 417.01 C 201.04 419.81 200.51 422.60 200.12 425.42 C 207.29 414.11 209.42 400.65 215.56 388.93 C 212.29 398.87 208.45 408.66 205.71 418.76 C 202.96 422.86 200.39 427.23 201.36 432.42 C 208.92 432.10 216.48 432.75 224.04 432.65 C 230.55 435.40 238.62 434.90 244.16 439.60 C 248.90 459.30 247.01 480.27 241.95 499.75 C 247.93 499.77 253.92 499.75 259.90 499.76 C 264.26 489.87 269.05 480.18 273.32 470.27 C 274.80 457.95 269.59 445.08 260.71 436.63 C 257.99 431.18 250.92 428.22 245.16 430.16 C 238.15 428.17 230.83 429.57 224.22 432.24 C 229.71 423.50 237.57 416.81 244.42 409.22 C 237.82 409.57 233.20 414.19 229.08 418.79 C 230.82 416.06 233.11 413.76 235.33 411.43 C 229.44 409.26 227.74 416.94 222.28 417.15 C 218.18 421.17 216.29 426.81 213.38 431.66 C 215.15 426.29 218.46 421.65 221.08 416.70 C 214.33 418.45 209.92 424.55 211.15 431.53 C 207.03 427.43 211.41 420.75 211.60 415.69 C 210.78 415.14 209.96 414.59 209.14 414.05 C 213.70 404.73 214.36 393.95 219.36 384.81 C 218.83 393.10 214.65 400.71 213.10 408.88 C 213.62 408.76 214.66 408.52 215.18 408.39 C 223.72 393.09 232.18 377.33 245.55 365.60 C 248.41 363.74 248.71 360.33 248.71 357.23 C 251.20 354.67 254.07 352.55 257.12 350.71 C 256.15 350.15 255.19 349.60 254.22 349.05 C 256.64 347.94 259.01 346.72 261.31 345.37 C 248.12 346.04 236.53 354.72 229.41 365.44 C 226.27 369.75 224.51 374.86 221.37 379.16 C 227.67 359.94 245.13 343.36 266.23 343.59 C 266.28 344.09 266.38 345.11 266.43 345.61 C 263.58 346.86 260.66 347.94 257.71 348.91 C 257.55 349.90 257.40 350.89 257.25 351.89 C 251.44 353.58 249.60 359.10 248.11 364.29 C 238.28 373.81 229.05 384.31 223.30 396.88 C 230.64 391.45 239.49 386.39 248.91 389.30 C 259.27 384.32 271.50 377.15 283.10 382.36 C 274.59 385.17 267.25 390.44 260.48 396.19 C 263.33 400.12 266.05 404.13 268.81 408.12 C 272.33 413.40 278.81 415.11 284.42 417.20 C 275.24 418.95 267.77 411.87 259.02 410.67 C 254.26 409.46 249.35 409.48 244.56 410.44 C 241.11 413.90 237.56 417.25 234.32 420.91 C 243.75 419.72 253.11 414.89 262.71 417.75 C 276.27 421.61 283.98 437.73 279.60 450.92 C 278.69 453.40 278.28 456.01 278.25 458.68 C 287.03 442.10 293.84 424.52 302.47 407.85 C 285.33 375.30 267.28 343.23 250.39 310.55 C 216.50 310.60 182.64 309.91 148.76 309.36 C 133.36 337.39 117.88 365.38 102.34 393.32 C 101.81 394.50 101.36 395.71 100.99 396.96 C 100.67 396.26 100.04 394.85 99.72 394.15 C 115.10 365.18 130.90 336.42 146.54 307.59 M 138.68 346.68 C 142.29 350.93 150.08 352.34 149.65 359.40 C 157.08 363.10 157.11 373.31 165.06 375.99 C 167.58 378.99 166.94 384.05 170.43 386.52 C 174.41 389.24 178.09 392.40 180.88 396.37 C 182.39 396.54 183.89 396.72 185.40 396.93 C 185.66 396.47 185.93 396.02 186.20 395.57 C 187.33 397.91 189.59 399.11 191.87 400.13 C 190.32 392.23 186.21 385.04 180.99 379.00 C 174.50 371.16 167.70 363.15 158.59 358.29 C 152.81 354.48 146.49 351.36 141.52 346.44 C 140.57 346.51 139.62 346.59 138.68 346.68 M 250.65 389.88 C 252.45 390.84 254.25 391.83 256.03 392.86 C 259.06 390.75 262.17 388.71 265.61 387.33 C 262.72 389.68 259.21 391.21 256.70 394.03 C 257.53 394.46 259.19 395.32 260.02 395.75 C 264.93 390.51 272.43 387.93 276.04 381.53 C 266.98 381.26 258.00 384.72 250.65 389.88 M 212.92 420.92 C 215.87 418.56 218.90 415.40 223.00 415.61 C 226.44 416.25 227.73 412.64 229.44 410.45 C 235.81 411.83 241.91 406.80 248.01 409.38 C 255.16 407.64 262.48 410.86 269.40 412.53 C 267.08 410.92 266.40 408.58 266.09 406.01 C 260.85 396.36 250.69 387.53 238.95 389.51 C 224.61 392.98 214.23 406.46 212.92 420.92 M 95.27 402.60 C 96.28 402.53 98.32 402.38 99.33 402.31 C 98.08 403.13 96.17 403.42 95.92 405.25 C 107.39 406.63 118.71 403.97 130.04 402.62 C 135.79 400.68 141.71 402.54 147.40 403.71 C 151.39 405.54 154.71 408.73 159.07 409.86 C 160.90 407.94 162.33 405.68 164.07 403.68 C 144.40 390.07 113.86 384.17 95.27 402.60 M 161.57 408.58 C 151.96 417.45 140.79 429.28 142.88 443.48 C 148.59 439.29 149.68 431.92 153.58 426.48 C 162.68 418.55 173.47 412.87 183.36 406.00 C 186.00 403.48 189.88 403.40 193.29 403.82 C 192.35 402.70 191.41 401.58 190.48 400.46 C 188.76 400.40 187.04 400.36 185.32 400.35 C 185.42 399.66 185.61 398.26 185.71 397.56 C 176.42 396.13 166.53 400.59 161.57 408.58 M 183.36 406.00 C 187.53 413.63 192.52 421.04 194.92 429.47 C 195.70 429.42 196.49 429.37 197.28 429.33 C 198.61 421.62 199.40 412.97 194.86 406.14 C 191.65 402.98 187.04 405.06 183.36 406.00 M 176.61 411.03 C 181.31 415.78 185.75 420.79 190.62 425.38 C 189.75 419.04 186.35 413.50 183.07 408.15 C 180.88 409.01 178.73 409.99 176.61 411.03 M 172.62 413.59 C 172.53 414.20 172.36 415.42 172.27 416.04 C 176.09 416.49 179.20 418.89 182.77 420.11 C 181.14 417.52 179.11 415.22 176.89 413.13 C 175.47 413.29 174.04 413.44 172.62 413.59 M 250.53 418.22 C 243.22 420.47 233.94 420.13 228.84 426.63 C 231.03 426.11 233.20 425.52 235.43 425.19 C 231.95 426.53 227.80 427.12 225.99 430.90 C 232.04 428.51 238.71 427.47 245.08 429.22 C 249.71 426.92 253.69 430.40 258.19 430.95 C 260.05 434.56 262.24 437.98 265.85 440.06 C 269.21 444.94 270.52 451.01 274.34 455.67 C 274.47 453.56 274.62 451.46 274.80 449.37 C 276.23 452.82 275.37 456.62 275.34 460.23 C 278.77 455.71 279.86 448.21 279.44 442.01 C 280.23 427.33 264.95 414.28 250.53 418.22 M 159.36 442.30 C 155.36 443.71 156.46 448.72 156.20 452.01 C 156.48 469.12 158.86 486.62 165.70 502.42 C 189.14 501.25 212.61 500.56 236.08 500.21 C 240.42 500.43 239.79 494.77 240.97 491.86 C 243.85 475.12 245.78 457.36 241.18 440.79 C 233.22 437.38 224.53 436.29 215.99 435.54 C 197.00 434.98 177.19 434.88 159.36 442.30 Z" />
<path fill="#000000" opacity="1.00" d=" M 494.57 437.47 C 496.45 431.98 500.88 426.58 507.37 428.25 C 494.83 429.23 493.15 444.84 492.35 454.78 C 495.58 453.74 498.79 452.64 502.14 452.05 C 498.24 455.39 492.74 455.04 487.96 455.96 C 493.54 451.34 491.00 443.23 494.57 437.47 Z" />
</g>
</svg>
