<?xml version="1.0" encoding="UTF-8" ?>
<!DOCTYPE svg PUBLIC "-//W3C//DTD SVG 1.1//EN" "http://www.w3.org/Graphics/SVG/1.1/DTD/svg11.dtd">
<svg width="512pt" height="512pt" viewBox="0 0 512 512" version="1.1" xmlns="http://www.w3.org/2000/svg">
<path fill="#000000" opacity="1.00" d=" M 0.00 92.30 C 1.98 76.71 16.09 63.64 32.00 64.01 C 181.33 63.99 330.67 63.99 480.00 64.01 C 496.48 63.63 511.27 77.74 512.00 94.15 L 512.00 99.70 C 509.99 115.28 495.92 128.32 480.01 127.99 C 330.67 128.01 181.33 128.01 31.99 127.99 C 16.10 128.33 2.00 115.29 0.00 99.72 L 0.00 92.30 Z" />
<path fill="#000000" opacity="1.00" d=" M 0.00 252.30 C 1.99 236.72 16.09 223.64 32.00 224.01 C 181.33 224.00 330.67 223.99 480.01 224.01 C 496.48 223.64 511.26 237.76 512.00 254.15 L 512.00 259.70 C 509.99 275.29 495.92 288.32 480.01 287.99 C 330.67 288.01 181.33 288.01 31.99 287.99 C 16.11 288.33 2.01 275.29 0.00 259.72 L 0.00 252.30 Z" />
<path fill="#000000" opacity="1.00" d=" M 0.00 412.30 C 1.99 396.72 16.08 383.63 32.00 384.01 C 181.34 384.00 330.67 383.99 480.01 384.01 C 496.48 383.64 511.26 397.76 512.00 414.15 L 512.00 419.70 C 509.98 435.29 495.92 448.32 480.01 447.99 C 330.67 448.01 181.33 448.01 31.99 447.99 C 16.10 448.33 2.01 435.29 0.00 419.72 L 0.00 412.30 Z" />
</svg>
