<?xml version="1.0" encoding="UTF-8" ?>
<!DOCTYPE svg PUBLIC "-//W3C//DTD SVG 1.1//EN" "http://www.w3.org/Graphics/SVG/1.1/DTD/svg11.dtd">
<svg width="512pt" height="512pt" viewBox="0 0 512 512" version="1.1" xmlns="http://www.w3.org/2000/svg">
<path fill="#000000" opacity="1.00" d=" M 281.63 0.00 L 296.42 0.00 C 307.25 1.41 317.92 4.87 327.10 10.89 C 344.32 21.51 356.84 39.43 360.92 59.25 C 362.93 68.58 363.22 78.31 361.49 87.71 C 360.31 94.20 357.86 100.35 355.83 106.60 C 403.24 106.72 450.65 106.70 498.06 106.60 C 501.01 106.74 504.12 106.83 506.80 108.22 C 509.48 109.69 510.81 112.62 512.00 115.28 L 512.00 277.29 C 511.69 281.73 511.71 286.55 509.33 290.47 C 506.21 293.89 500.60 294.69 496.59 292.40 C 491.27 289.52 486.84 285.23 481.39 282.54 C 465.97 274.47 446.61 276.07 431.82 284.82 C 415.83 294.21 405.41 312.46 405.76 331.03 C 405.82 343.54 410.43 355.96 418.62 365.42 C 426.54 374.61 437.69 380.88 449.58 383.17 C 463.27 385.41 478.15 382.82 489.37 374.37 C 493.51 371.52 497.55 367.28 502.99 367.67 C 507.02 367.85 509.94 371.04 512.00 374.19 L 512.00 505.93 C 509.72 508.50 506.91 510.58 503.78 512.00 L 341.71 512.00 C 337.31 511.67 332.47 511.73 328.65 509.25 C 324.95 505.72 324.87 499.66 327.41 495.43 C 331.12 488.86 336.42 483.19 339.03 476.00 C 344.90 460.44 341.90 442.17 332.30 428.73 C 322.39 414.06 304.58 405.27 286.93 406.00 C 270.58 406.41 254.74 414.94 245.32 428.30 C 233.54 444.27 232.10 466.97 241.64 484.35 C 243.98 488.89 247.59 492.62 249.90 497.17 C 251.78 500.73 251.17 505.44 248.38 508.37 C 246.56 510.23 244.06 511.17 241.65 512.00 L 115.29 512.00 C 112.62 510.82 109.69 509.48 108.22 506.80 C 106.83 504.12 106.74 501.01 106.60 498.06 C 106.71 465.02 106.69 431.99 106.64 398.96 C 102.29 400.49 97.98 402.15 93.55 403.46 C 84.70 406.08 75.29 406.49 66.15 405.52 C 50.04 403.66 35.06 395.68 23.41 384.58 C 10.36 371.86 1.94 354.54 0.00 336.42 L 0.00 322.58 C 2.90 295.51 21.99 271.04 47.34 261.27 C 59.87 256.13 73.84 254.84 87.17 257.06 C 93.89 258.21 100.29 260.66 106.70 262.93 C 106.58 215.60 106.79 168.27 106.58 120.95 C 106.72 117.29 106.78 113.18 109.33 110.26 C 111.43 107.76 114.80 106.94 117.93 106.73 C 123.61 106.35 129.31 106.71 135.00 106.67 C 163.38 106.64 191.75 106.71 220.13 106.65 C 217.89 99.92 215.20 93.30 213.95 86.29 C 211.66 72.78 213.27 58.58 218.97 46.09 C 223.96 34.32 232.39 24.28 242.29 16.32 C 253.54 7.34 267.38 1.79 281.63 0.00 M 260.11 29.11 C 247.89 36.38 239.12 48.96 235.92 62.76 C 234.10 71.27 234.05 80.25 236.30 88.69 C 238.02 95.23 241.63 101.06 245.60 106.46 C 247.67 109.46 250.11 112.45 250.82 116.13 C 251.25 119.08 250.57 122.33 248.59 124.61 C 246.39 126.92 243.02 127.37 240.02 127.74 C 233.03 128.36 226.00 128.26 218.99 128.34 C 188.67 128.36 158.35 127.88 128.02 128.02 C 127.87 169.68 128.38 211.33 128.33 252.99 C 128.32 262.03 128.27 271.07 127.84 280.11 C 127.61 283.18 127.51 286.40 126.19 289.25 C 124.76 291.99 121.55 293.17 118.67 293.66 C 115.55 294.22 112.60 292.67 110.11 290.97 C 106.13 288.23 102.37 285.14 98.07 282.89 C 86.63 276.65 72.73 275.85 60.30 279.28 C 48.21 282.43 37.69 290.41 30.54 300.56 C 21.37 313.78 18.93 331.25 23.58 346.60 C 28.09 360.98 38.95 373.23 52.80 379.26 C 62.80 384.12 74.37 385.04 85.22 383.00 C 93.27 381.18 100.95 377.56 107.44 372.45 C 109.63 370.83 111.79 369.08 114.38 368.16 C 118.54 366.70 123.52 368.38 125.97 372.03 C 127.58 374.33 127.88 377.22 128.00 379.94 C 128.09 416.87 127.83 453.81 128.12 490.75 C 158.81 490.52 189.50 490.80 220.18 490.61 C 217.71 482.86 214.45 475.25 213.83 467.05 C 210.57 440.15 223.46 412.01 245.96 396.93 C 265.33 382.98 291.90 379.78 313.97 388.93 C 331.86 395.76 346.78 409.62 355.52 426.58 C 362.45 440.20 364.63 456.09 361.91 471.10 C 360.65 477.84 358.00 484.18 355.85 490.66 C 400.81 490.71 445.76 490.59 490.72 490.72 C 490.57 460.13 490.74 429.53 490.64 398.94 C 484.76 400.95 478.99 403.40 472.88 404.66 C 457.34 407.71 440.76 405.64 426.67 398.31 C 416.76 393.10 407.68 386.09 400.78 377.22 C 393.99 368.54 388.81 358.54 386.10 347.84 C 381.25 330.00 383.85 310.25 393.30 294.35 C 402.20 278.79 416.60 266.34 433.58 260.43 C 444.97 256.11 457.44 255.14 469.47 256.78 C 476.81 257.79 483.76 260.47 490.69 262.96 C 490.68 218.01 490.59 173.06 490.74 128.12 C 485.49 127.99 480.25 127.96 475.00 127.99 C 429.31 128.04 383.61 127.94 337.92 128.05 C 335.13 127.94 332.13 127.85 329.74 126.24 C 325.90 123.78 324.01 118.67 325.40 114.32 C 326.60 111.17 329.03 108.73 330.98 106.03 C 341.43 92.18 344.17 73.01 338.25 56.72 C 334.12 45.37 326.29 35.19 315.75 29.12 C 299.17 18.65 276.71 18.73 260.11 29.11 Z" />
</svg>
