<?xml version="1.0" encoding="UTF-8" ?>
<!DOCTYPE svg PUBLIC "-//W3C//DTD SVG 1.1//EN" "http://www.w3.org/Graphics/SVG/1.1/DTD/svg11.dtd">
<svg width="512pt" height="512pt" viewBox="0 0 512 512" version="1.1" xmlns="http://www.w3.org/2000/svg">
<path fill="#000000" opacity="1.00" d=" M 181.41 0.00 L 184.64 0.00 C 188.59 0.96 192.46 2.69 195.18 5.80 C 200.22 11.42 205.88 16.43 210.81 22.14 C 222.59 35.68 240.67 44.12 258.75 42.64 C 272.34 42.35 285.58 36.74 295.66 27.72 C 300.46 23.50 304.34 18.36 308.96 13.96 C 312.04 11.03 314.82 7.79 317.85 4.80 C 320.40 2.21 323.90 0.90 327.36 0.00 L 330.58 0.00 C 335.38 0.75 340.45 2.44 343.39 6.56 C 347.27 11.23 347.13 17.61 347.92 23.31 C 348.75 29.19 349.66 35.06 350.32 40.96 C 351.79 53.08 357.51 64.45 365.57 73.54 C 379.07 87.98 400.03 95.60 419.60 91.75 C 427.33 90.36 435.07 89.02 442.78 87.54 C 446.90 86.89 451.32 86.19 455.31 87.82 C 460.74 90.11 465.24 95.07 466.13 101.01 C 466.85 104.84 466.01 108.80 464.31 112.25 C 459.40 122.21 453.39 131.60 448.90 141.77 C 442.82 156.40 443.44 173.53 450.01 187.90 C 455.72 201.24 466.77 212.13 480.01 218.01 C 485.93 220.72 491.68 223.78 497.62 226.44 C 500.91 227.97 504.32 229.49 506.96 232.04 C 509.79 234.78 511.07 238.64 512.00 242.36 L 512.00 245.60 C 511.20 249.65 509.90 253.91 506.70 256.73 C 503.01 259.99 498.37 261.83 494.01 263.96 C 483.87 268.88 472.99 272.88 464.52 280.59 C 452.18 291.80 444.71 308.25 444.74 324.96 C 444.43 335.58 447.88 345.92 452.82 355.20 C 456.60 362.10 460.44 368.98 464.06 375.96 C 466.13 379.90 466.96 384.53 465.93 388.91 C 464.70 394.77 459.72 399.22 454.24 401.15 C 447.75 403.18 441.10 400.73 434.68 399.62 C 426.48 398.26 418.39 395.77 410.00 396.00 C 393.28 395.60 376.63 403.03 365.56 415.53 C 357.01 424.29 352.14 436.07 350.19 448.04 C 349.05 455.86 348.65 463.78 347.43 471.59 C 346.92 474.66 346.23 477.81 344.50 480.46 C 341.02 485.78 334.57 489.22 328.18 488.67 C 323.62 488.29 319.58 485.74 316.38 482.62 C 310.94 477.34 306.09 471.50 300.97 465.94 C 293.13 457.52 283.08 450.99 271.91 448.04 C 255.46 443.37 237.02 446.22 222.90 455.91 C 213.94 461.42 207.71 470.07 200.54 477.55 C 196.80 481.46 193.11 485.87 187.89 487.80 C 179.07 491.06 168.34 485.43 165.66 476.50 C 164.18 471.43 164.03 466.10 163.26 460.90 C 162.19 453.67 162.07 446.26 159.84 439.25 C 157.73 432.56 154.90 426.00 150.60 420.41 C 144.29 412.33 136.39 405.24 126.87 401.18 C 114.19 395.26 99.47 394.62 86.00 397.99 C 80.71 399.22 75.33 400.02 70.00 401.05 C 65.76 401.82 61.20 402.61 57.07 400.91 C 51.64 398.67 46.75 394.01 45.88 387.98 C 44.98 383.36 46.40 378.67 48.57 374.61 C 52.50 367.23 56.66 359.98 60.50 352.56 C 64.28 345.27 66.63 337.23 67.19 329.05 C 68.22 312.20 61.95 294.95 49.97 282.99 C 44.53 277.12 37.50 273.08 30.30 269.73 C 24.42 267.03 18.66 264.10 12.80 261.35 C 9.74 259.86 6.57 258.31 4.29 255.72 C 1.79 252.92 0.71 249.21 0.00 245.61 L 0.00 242.36 C 1.00 238.44 2.33 234.28 5.51 231.56 C 8.33 229.18 11.75 227.70 15.06 226.14 C 21.44 223.22 27.77 220.18 34.06 217.06 C 43.71 212.33 52.03 204.93 57.88 195.91 C 67.09 181.10 70.17 162.20 64.50 145.53 C 60.20 133.88 53.31 123.45 47.65 112.46 C 45.71 108.68 45.13 104.25 46.05 100.10 C 47.21 94.54 51.55 90.00 56.69 87.82 C 60.95 86.05 65.66 86.94 70.02 87.77 C 76.49 89.15 83.06 89.94 89.52 91.39 C 98.32 93.47 107.58 92.99 116.37 91.14 C 130.71 87.45 144.05 78.73 152.10 66.16 C 155.91 60.50 158.70 54.16 160.45 47.57 C 162.14 41.18 162.11 34.52 163.25 28.04 C 164.13 23.14 164.49 18.16 165.47 13.27 C 166.19 9.68 168.24 6.43 171.00 4.05 C 173.92 1.60 177.74 0.65 181.41 0.00 M 188.00 35.04 C 186.64 40.12 186.55 45.43 185.32 50.53 C 181.81 66.25 174.33 81.41 162.51 92.54 C 145.77 109.70 121.40 119.27 97.43 117.53 C 90.81 117.46 84.49 115.23 77.93 114.78 C 79.73 120.09 83.07 124.69 85.15 129.88 C 93.02 147.07 94.39 167.11 89.29 185.28 C 86.15 198.41 79.18 210.37 70.43 220.54 C 66.13 225.60 60.76 229.58 55.42 233.45 C 49.35 237.84 42.11 240.18 35.82 244.21 C 38.45 246.54 41.90 247.53 44.97 249.14 C 53.07 253.23 60.81 258.29 66.99 265.01 C 74.61 272.09 80.58 280.86 84.71 290.39 C 88.36 298.81 91.22 307.70 91.88 316.90 C 92.83 325.83 91.86 334.82 90.32 343.62 C 88.28 351.00 85.89 358.37 82.15 365.10 C 80.64 367.98 78.62 370.68 77.94 373.94 C 82.80 373.68 87.44 371.97 92.27 371.51 C 105.29 370.39 118.76 371.07 131.00 376.02 C 143.58 380.58 155.17 387.98 164.19 397.91 C 176.08 410.37 183.69 426.61 186.33 443.58 C 186.83 447.04 186.99 450.54 187.43 454.01 C 189.34 452.77 190.95 451.16 192.48 449.48 C 204.75 435.68 221.62 426.07 239.73 422.45 C 248.63 420.50 257.86 420.79 266.90 421.47 C 285.63 423.93 303.39 432.92 316.62 446.39 C 319.20 448.96 321.41 451.98 324.53 453.96 C 325.73 446.72 325.73 439.24 328.24 432.26 C 333.43 413.70 345.45 397.25 361.19 386.20 C 370.38 379.83 380.83 375.33 391.73 372.86 C 400.00 370.79 408.61 370.91 417.07 371.29 C 422.85 371.56 428.42 373.34 434.17 373.79 C 432.63 369.28 429.73 365.42 427.82 361.09 C 422.12 348.59 419.14 334.77 419.89 321.02 C 420.15 308.38 424.21 296.12 429.92 284.96 C 438.44 269.13 452.08 256.10 468.39 248.49 C 471.03 247.14 474.04 246.28 476.19 244.13 C 468.39 239.91 460.04 236.52 453.12 230.84 C 441.97 222.88 433.54 211.57 427.76 199.24 C 424.24 192.62 422.60 185.25 421.00 177.99 C 419.54 170.39 419.64 162.58 420.17 154.89 C 420.88 144.66 424.35 134.86 428.80 125.71 C 430.60 122.09 432.84 118.66 434.07 114.78 C 427.76 115.18 421.71 117.37 415.37 117.48 C 390.68 119.65 365.49 109.43 348.51 91.53 C 337.53 80.93 330.64 66.69 327.01 52.01 C 325.52 46.44 325.46 40.62 324.00 35.05 C 321.32 36.66 319.61 39.36 317.49 41.56 C 304.82 54.21 288.57 63.64 270.78 66.57 C 258.55 68.39 245.88 68.14 233.88 64.99 C 223.42 61.80 213.23 57.22 204.62 50.37 C 200.78 47.29 196.82 44.28 193.59 40.53 C 191.84 38.60 190.30 36.38 188.00 35.04 Z" />
<path fill="#000000" opacity="1.00" d=" M 244.32 100.27 C 278.60 96.88 313.73 107.26 341.39 127.61 C 346.50 131.47 351.68 135.29 356.05 140.01 C 379.51 162.36 395.24 192.83 399.23 225.04 C 405.40 265.62 392.22 308.36 365.20 339.10 C 361.32 343.91 357.06 348.41 352.23 352.27 C 340.43 362.69 327.06 371.37 312.56 377.54 C 303.90 380.94 295.13 384.29 285.93 385.90 C 279.35 387.06 272.81 388.64 266.10 388.74 C 254.23 389.11 242.16 389.40 230.52 386.69 C 220.13 384.61 209.89 381.76 200.07 377.77 C 188.06 372.52 176.53 366.00 166.32 357.74 C 160.12 352.64 153.76 347.61 148.71 341.31 C 136.44 327.78 126.84 311.89 120.32 294.84 C 116.70 284.22 113.36 273.36 112.54 262.11 C 110.74 249.83 110.86 237.30 112.77 225.05 C 114.55 208.14 120.47 191.97 127.94 176.80 C 133.74 166.05 141.00 156.16 149.02 146.97 C 154.40 141.70 159.38 135.99 165.48 131.52 C 182.81 117.62 203.34 107.83 225.01 103.00 C 231.30 101.20 237.85 100.88 244.32 100.27 M 239.43 125.60 C 224.24 128.25 209.08 132.68 195.86 140.81 C 172.16 154.34 153.63 176.50 144.01 201.99 C 141.64 208.87 139.14 215.79 138.18 223.05 C 137.37 228.66 136.07 234.25 136.26 239.96 C 136.46 249.69 136.44 259.55 138.84 269.04 C 141.02 279.85 145.08 290.19 150.00 300.02 C 161.14 321.52 179.18 339.28 200.61 350.49 C 216.22 358.35 233.40 363.69 250.99 363.96 C 256.66 364.08 262.34 364.04 267.99 363.60 C 275.81 363.00 283.41 360.95 290.94 358.87 C 322.06 349.26 349.23 326.66 363.30 297.15 C 368.00 287.86 371.33 277.91 373.54 267.75 C 376.12 254.37 376.22 240.59 374.62 227.08 C 370.73 202.22 359.28 178.42 341.47 160.54 C 333.35 152.04 323.87 144.85 313.46 139.40 C 291.22 126.65 264.72 122.48 239.43 125.60 Z" />
</svg>
